HIERARCHY
ROOT Hips
{
	OFFSET 0.00 0.00 0.00
	CHANNELS 6 Xposition Yposition Zposition Yrotation Xrotation Zrotation
	JOINT Chest
	{
		OFFSET	0.0000	9.2263	1.5771
		CHANNELS 3 Yrotation Xrotation Zrotation
		JOINT Chest2
		{
			OFFSET	0.0000	16.2540	-0.1656
			CHANNELS 3 Yrotation Xrotation Zrotation
			JOINT Chest3
			{
				OFFSET	0.0000	13.6396	-1.2923
				CHANNELS 3 Yrotation Xrotation Zrotation
				JOINT Neck
				{
					OFFSET	0.0000	13.8774	-4.3542
					CHANNELS 3 Yrotation Xrotation Zrotation
					JOINT Head
					{
						OFFSET	0.0000	4.0266	0.8585
						CHANNELS 3 Yrotation Xrotation Zrotation
						End Site
						{
							OFFSET 0.0000 17.8866 0.1231
						}
					}
				}
				JOINT LeftCollar
				{
					OFFSET	6.1442	10.1870	-3.7932
					CHANNELS 3 Yrotation Xrotation Zrotation
					JOINT LeftShoulder
					{
						OFFSET	12.3191	-1.1130	-1.7935
						CHANNELS 3 Yrotation Xrotation Zrotation
						JOINT LeftElbow
						{
							OFFSET	27.6870	0.0000	0.0000
							CHANNELS 3 Yrotation Xrotation Zrotation
							JOINT LeftHand
							{
								OFFSET	27.8738	0.0000	0.0000
								CHANNELS 3 Yrotation Xrotation Zrotation
								JOINT LeftFinger0
								{
									OFFSET	3.1460	-1.0029	4.0023
									CHANNELS 3 Yrotation Xrotation Zrotation
									JOINT LeftFinger01
									{
										OFFSET	4.3298	-1.0029	2.0796
										CHANNELS 3 Yrotation Xrotation Zrotation
										End Site
										{
											OFFSET 3.7362 -2.0137 1.7261
										}
									}
								}
								JOINT LeftFinger1
								{
									OFFSET	11.5739	0.0000	0.0000
									CHANNELS 3 Yrotation Xrotation Zrotation
									JOINT LeftFinger11
									{
										OFFSET	4.0578	0.0000	0.0000
										CHANNELS 3 Yrotation Xrotation Zrotation
										End Site
										{
											OFFSET 4.0431 0.0000 0.0000
										}
									}
								}
							}
						}
					}
				}
				JOINT RightCollar
				{
					OFFSET	-6.1402	10.1870	-3.7932
					CHANNELS 3 Yrotation Xrotation Zrotation
					JOINT RightShoulder
					{
						OFFSET	-12.3231	-1.1130	-1.7935
						CHANNELS 3 Yrotation Xrotation Zrotation
						JOINT RightElbow
						{
							OFFSET	-27.6870	0.0000	0.0000
							CHANNELS 3 Yrotation Xrotation Zrotation
							JOINT RightHand
							{
								OFFSET	-27.8738	0.0000	0.0000
								CHANNELS 3 Yrotation Xrotation Zrotation
								JOINT RightFinger0
								{
									OFFSET	-3.1758	-1.0029	3.9820
									CHANNELS 3 Yrotation Xrotation Zrotation
									JOINT RightFinger01
									{
										OFFSET	-4.2938	-1.0019	2.1232
										CHANNELS 3 Yrotation Xrotation Zrotation
										End Site
										{
											OFFSET -3.7424 -2.0137 1.7029
										}
									}
								}
								JOINT RightFinger1
								{
									OFFSET	-11.5739	0.0000	0.0000
									CHANNELS 3 Yrotation Xrotation Zrotation
									JOINT RightFinger11
									{
										OFFSET	-4.0578	0.0000	0.0000
										CHANNELS 3 Yrotation Xrotation Zrotation
										End Site
										{
											OFFSET -4.0431 0.0000 0.0000
										}
									}
								}
							}
						}
					}
				}
			}
		}
	}
	JOINT LeftHip
	{
		OFFSET	9.6338	-3.2733	0.0000
		CHANNELS 3 Yrotation Xrotation Zrotation
		JOINT LeftKnee
		{
			OFFSET	0.0000	-46.7251	-1.7300
			CHANNELS 3 Yrotation Xrotation Zrotation
			JOINT LeftAnkle
			{
				OFFSET	0.0126	-34.1943	-0.8477
				CHANNELS 3 Yrotation Xrotation Zrotation
				JOINT LeftToe
				{
					OFFSET	-0.1833	-12.0640	8.2823
					CHANNELS 3 Yrotation Xrotation Zrotation
					End Site
					{
						OFFSET 0.0000 0.1809 10.3623
					}
				}
			}
		}
	}
	JOINT RightHip
	{
		OFFSET	-9.6338	-3.2733	0.0000
		CHANNELS 3 Yrotation Xrotation Zrotation
		JOINT RightKnee
		{
			OFFSET	0.0000	-46.7251	-1.7300
			CHANNELS 3 Yrotation Xrotation Zrotation
			JOINT RightAnkle
			{
				OFFSET	0.0126	-34.1943	-0.8477
				CHANNELS 3 Yrotation Xrotation Zrotation
				JOINT RightToe
				{
					OFFSET	-0.1833	-12.0640	8.2823
					CHANNELS 3 Yrotation Xrotation Zrotation
					End Site
					{
						OFFSET 0.0032 0.1809 10.3623
					}
				}
			}
		}
	}
}
MOTION
Frames: 11
Frame Time: 0.0333333
-1.3033 95.6117 0.0222 -0.0463 -0.3804 -1.1246 -0.2551 -0.0864 0.0509 -2.0669 -0.4194 0.0255 -2.0607 -0.4235 0.0272 1.6429 -1.6497 -1.3394 -0.2592 9.2860 2.2393 12.0744 -1.0149 1.1747 -17.7747 6.7158 -71.3079 -31.3012 0.0000 0.0000 -11.7256 12.5048 79.3005 0.0000 -0.0000 0.0000 0.0000 -0.0000 0.0000 0.0000 -0.0000 0.0000 0.0000 -0.0000 0.0000 -2.5371 -0.0588 -5.6395 21.5038 2.7005 78.1921 27.2539 0.0000 -0.0000 0.5875 13.6732 -89.9680 0.0000 -0.0000 0.0000 0.0000 -0.0000 0.0000 0.0000 -0.0000 0.0000 0.0000 -0.0000 0.0000 3.0783 -7.9276 2.8331 10.0391 19.0990 4.3492 3.2755 -10.4521 -5.0778 -0.0000 -0.0498 -0.0000 -12.8372 -7.7442 -3.0844 -5.1811 13.8951 -2.1745 -4.4087 -4.7610 5.8410 0.0000 -0.1142 0.0000 
-0.9208 95.5894 -0.0287 -0.2876 -0.4546 -1.2164 -0.2380 -0.0439 0.0309 -2.0459 -0.3529 -0.0007 -2.0401 -0.3564 0.0023 1.5839 -1.6282 -1.2601 -0.2926 9.3728 2.3417 12.0469 -0.9963 1.0570 -18.1202 6.5853 -71.1315 -31.1521 0.0000 0.0000 -11.5878 12.6349 79.2178 0.0000 -0.0000 0.0000 0.0000 -0.0000 0.0000 0.0000 -0.0000 0.0000 0.0000 -0.0000 0.0000 -2.3700 -0.0221 -5.4848 21.3485 2.5183 78.1094 27.1982 0.0000 -0.0000 0.4956 13.6185 -89.9772 0.0000 -0.0000 0.0000 0.0000 -0.0000 0.0000 0.0000 -0.0000 0.0000 0.0000 -0.0000 0.0000 2.9434 -8.0136 2.6858 10.0519 19.5404 4.3443 3.6452 -10.7622 -4.8894 0.0000 -0.0665 0.0000 -13.0003 -7.6860 -3.2259 -5.0315 13.6176 -2.1645 -4.1737 -4.4421 6.0174 0.0000 -0.2383 0.0000 
-0.5273 95.5545 -0.0889 -0.5327 -0.5460 -1.2992 -0.2146 0.0108 0.0055 -2.0245 -0.2666 -0.0329 -2.0192 -0.2692 -0.0283 1.5170 -1.6209 -1.1735 -0.3427 9.4171 2.4767 11.9421 -0.9688 0.9339 -18.6646 6.4296 -70.9628 -30.9673 -0.0000 -0.0000 -11.3249 12.7745 79.1302 0.0000 -0.0000 0.0000 0.0000 -0.0000 0.0000 0.0000 -0.0000 0.0000 0.0000 -0.0000 0.0000 -2.1161 0.0342 -5.2867 21.2433 2.2843 77.9603 27.1216 -0.0000 0.0000 0.3316 13.6047 -89.9734 0.0000 -0.0000 0.0000 0.0000 -0.0000 0.0000 0.0000 -0.0000 0.0000 0.0000 -0.0000 0.0000 2.8636 -8.1229 2.5157 10.0705 20.0502 4.3718 3.9674 -11.1097 -4.7069 0.0000 -0.0844 0.0000 -13.1652 -7.6839 -3.3870 -4.8751 13.4783 -2.1661 -3.9306 -4.1930 6.2124 -0.0000 -0.2934 -0.0000 
-0.1251 95.5084 -0.1556 -0.7731 -0.6500 -1.3782 -0.1847 0.0767 -0.0266 -2.0032 -0.1626 -0.0729 -1.9987 -0.1640 -0.0664 1.4403 -1.6250 -1.0749 -0.4138 9.4225 2.6602 11.7466 -0.9348 0.8289 -19.4095 6.2500 -70.8160 -30.7556 0.0000 0.0000 -10.9468 12.9125 79.0454 0.0000 -0.0000 0.0000 0.0000 -0.0000 0.0000 0.0000 -0.0000 0.0000 0.0000 -0.0000 0.0000 -1.7412 0.1185 -5.0200 21.1903 2.0519 77.7075 27.0638 0.0000 0.0000 0.0858 13.6254 -89.9587 0.0000 -0.0000 0.0000 0.0000 -0.0000 0.0000 0.0000 -0.0000 0.0000 0.0000 -0.0000 0.0000 2.8510 -8.2558 2.3274 10.0931 20.6169 4.4347 4.2316 -11.4885 -4.5307 -0.0000 -0.0937 0.0000 -13.3111 -7.7260 -3.5612 -4.7299 13.4522 -2.1796 -3.6891 -4.0023 6.4248 -0.0000 -0.2831 -0.0000 
0.2833 95.4523 -0.2272 -1.0029 -0.7594 -1.4570 -0.1492 0.1514 -0.0654 -1.9837 -0.0447 -0.1208 -1.9801 -0.0446 -0.1124 1.3536 -1.6338 -0.9631 -0.5072 9.3925 2.8887 11.4702 -0.8970 0.7523 -20.3251 6.0470 -70.6957 -30.5325 0.0000 -0.0000 -10.4828 13.0340 78.9665 0.0000 -0.0000 0.0000 0.0000 -0.0000 0.0000 0.0000 -0.0000 0.0000 0.0000 -0.0000 0.0000 -1.2328 0.2326 -4.6738 21.1987 1.8624 77.3292 27.0623 -0.0000 0.0000 -0.2159 13.6650 -89.9386 0.0000 -0.0000 0.0000 0.0000 -0.0000 0.0000 0.0000 -0.0000 0.0000 0.0000 -0.0000 0.0000 2.9021 -8.4143 2.1284 10.1200 21.2313 4.5249 4.4404 -11.8929 -4.3569 -0.0000 -0.0895 -0.0000 -13.4267 -7.8061 -3.7409 -4.6135 13.5184 -2.2098 -3.4494 -3.8604 6.6546 0.0000 -0.2132 0.0000 
0.6953 95.3867 -0.3041 -1.2202 -0.8654 -1.5370 -0.1098 0.2319 -0.1094 -1.9680 0.0821 -0.1754 -1.9654 0.0840 -0.1649 1.2589 -1.6385 -0.8393 -0.6181 9.3310 3.1402 11.1397 -0.8578 0.7042 -21.3438 5.8224 -70.6010 -30.3188 -0.0000 -0.0000 -9.9742 13.1196 78.8953 0.0000 -0.0000 0.0000 0.0000 -0.0000 0.0000 0.0000 -0.0000 0.0000 0.0000 -0.0000 0.0000 -0.6051 0.3708 -4.2558 21.2783 1.7330 76.8309 27.1379 -0.0000 0.0000 -0.5261 13.7032 -89.9209 0.0000 -0.0000 0.0000 0.0000 -0.0000 0.0000 0.0000 -0.0000 0.0000 0.0000 -0.0000 0.0000 2.9986 -8.6043 1.9269 10.1533 21.8888 4.6268 4.6087 -12.3189 -4.1796 -0.0000 -0.0720 0.0000 -13.5189 -7.9265 -3.9195 -4.5347 13.6626 -2.2606 -3.1995 -3.7603 6.8997 0.0000 -0.0960 0.0000 
1.1089 95.3149 -0.3883 -1.4277 -0.9596 -1.6183 -0.0691 0.3153 -0.1558 -1.9580 0.2132 -0.2342 -1.9563 0.2171 -0.2215 1.1597 -1.6311 -0.7066 -0.7344 9.2446 3.3825 10.7854 -0.8191 0.6794 -22.3685 5.5790 -70.5305 -30.1367 0.0000 0.0000 -9.4643 13.1489 78.8350 0.0000 -0.0000 0.0000 0.0000 -0.0000 0.0000 0.0000 -0.0000 0.0000 0.0000 -0.0000 0.0000 0.1083 0.5231 -3.7889 21.4283 1.6549 76.2452 27.2883 0.0000 0.0000 -0.7999 13.7205 -89.9139 0.0000 -0.0000 0.0000 0.0000 -0.0000 0.0000 0.0000 -0.0000 0.0000 0.0000 -0.0000 0.0000 3.1170 -8.8229 1.7302 10.1944 22.5650 4.7196 4.7582 -12.7503 -3.9905 0.0000 -0.0441 0.0000 -13.6137 -8.0830 -4.0906 -4.4859 13.8483 -2.3304 -2.9217 -3.6802 7.1528 0.0000 -0.0001 -0.0000 
1.5215 95.2392 -0.4812 -1.6321 -1.0380 -1.7031 -0.0295 0.3994 -0.2015 -1.9545 0.3450 -0.2939 -1.9537 0.3511 -0.2787 1.0608 -1.6067 -0.5679 -0.8394 9.1435 3.5859 10.4279 -0.7818 0.6716 -23.2959 5.3211 -70.4832 -30.0042 0.0000 0.0000 -8.9914 13.1080 78.7908 0.0000 -0.0000 0.0000 0.0000 -0.0000 0.0000 0.0000 -0.0000 0.0000 0.0000 -0.0000 0.0000 0.8674 0.6798 -3.3024 21.6302 1.6009 75.6215 27.4903 0.0000 -0.0000 -1.0143 13.7034 -89.9236 0.0000 -0.0000 0.0000 0.0000 -0.0000 0.0000 0.0000 -0.0000 0.0000 0.0000 -0.0000 0.0000 3.2381 -9.0668 1.5448 10.2453 23.2441 4.7925 4.9100 -13.1765 -3.7884 0.0000 -0.0079 -0.0000 -13.7446 -8.2688 -4.2462 -4.4384 14.0402 -2.4119 -2.6087 -3.5984 7.4051 0.0000 -0.0001 0.0000 
1.9308 95.1621 -0.5820 -1.8399 -1.1025 -1.7960 0.0068 0.4830 -0.2434 -1.9576 0.4762 -0.3507 -1.9576 0.4844 -0.3330 0.9661 -1.5651 -0.4250 -0.9162 9.0399 3.7336 10.0687 -0.7454 0.6784 -24.0482 5.0532 -70.4603 -29.9293 -0.0000 -0.0000 -8.5853 12.9991 78.7660 0.0000 -0.0000 0.0000 0.0000 -0.0000 0.0000 0.0000 -0.0000 0.0000 0.0000 -0.0000 0.0000 1.6404 0.8350 -2.8205 21.8483 1.5375 75.0091 27.7098 0.0000 -0.0000 -1.1768 13.6486 -89.9503 0.0000 -0.0000 0.0000 0.0000 -0.0000 0.0000 0.0000 -0.0000 0.0000 0.0000 -0.0000 0.0000 3.3497 -9.3276 1.3776 10.3073 23.9147 4.8422 5.0786 -13.5914 -3.5764 -0.0000 -0.0001 -0.0000 -13.9341 -8.4705 -4.3766 -4.3652 14.2105 -2.4966 -2.2770 -3.4984 7.6483 0.0000 -0.0000 0.0000 
2.3346 95.0840 -0.6879 -2.0519 -1.1597 -1.9009 0.0384 0.5663 -0.2797 -1.9670 0.6073 -0.4019 -1.9676 0.6175 -0.3813 0.8780 -1.5095 -0.2781 -0.9551 8.9431 3.8277 9.6903 -0.7088 0.7025 -24.5998 4.7793 -70.4652 -29.9059 -0.0000 0.0000 -8.2676 12.8475 78.7586 0.0000 -0.0000 0.0000 0.0000 -0.0000 0.0000 0.0000 -0.0000 0.0000 0.0000 -0.0000 0.0000 2.4114 0.9876 -2.3554 22.0419 1.4378 74.4410 27.9159 0.0000 -0.0000 -1.3193 13.5634 -89.9877 0.0000 -0.0000 0.0000 0.0000 -0.0000 0.0000 0.0000 -0.0000 0.0000 0.0000 -0.0000 0.0000 3.4409 -9.5969 1.2321 10.3813 24.5766 4.8755 5.2747 -13.9960 -3.3635 -0.0000 -0.0001 0.0000 -14.1806 -8.6745 -4.4765 -4.2381 14.3531 -2.5759 -1.9635 -3.3778 7.8797 0.0000 -0.0000 -0.0000 
2.7306 95.0026 -0.7952 -2.2616 -1.2177 -2.0191 0.0648 0.6506 -0.3100 -1.9825 0.7406 -0.4461 -1.9836 0.7527 -0.4222 0.7959 -1.4452 -0.1258 -0.9579 8.8531 3.8876 9.2629 -0.6702 0.7515 -24.9862 4.5012 -70.5024 -29.9131 -0.0000 -0.0000 -8.0515 12.7008 78.7580 0.0000 -0.0000 0.0000 0.0000 -0.0000 0.0000 0.0000 -0.0000 0.0000 0.0000 -0.0000 0.0000 3.1807 1.1396 -1.9056 22.1816 1.2899 73.9250 28.0902 -0.0000 0.0000 -1.4841 13.4627 -90.0239 0.0000 -0.0000 0.0000 0.0000 -0.0000 0.0000 0.0000 -0.0000 0.0000 0.0000 -0.0000 0.0000 3.5009 -9.8713 1.1067 10.4796 25.2438 4.9138 5.4841 -14.4007 -3.1620 0.0000 -0.0001 -0.0000 -14.4576 -8.8784 -4.5532 -4.0159 14.4988 -2.6373 -1.7012 -3.2608 8.1050 -0.0000 -0.0000 0.0000 
